<svg width="245" height="251" viewBox="0 0 245 251" fill="none" xmlns="http://www.w3.org/2000/svg">
    <rect x="83.0212" y="173.45" width="148.124" height="35.2865" transform="rotate(-27.6523 83.0212 173.45)" fill="#F5F5F5"/>
    <rect x="28.6644" y="123.696" width="105.72" height="35.2865" transform="rotate(30 28.6644 123.696)" fill="#F5F5F5"/>
    <rect x="12.0212" y="113.696" width="17" height="36" fill="#F5F5F5"/>
    <rect x="213.021" y="97.6956" width="17" height="38" fill="#F5F5F5"/>
    <path d="M7.80956 107.124H13.7355V162.624H7.80956C7.80956 162.624 2.3069 162.624 2.30692 134.874C2.30693 107.124 7.80956 107.124 7.80956 107.124Z" fill="#2D69F2"/>
    <path d="M237.164 89.9814H229.736V144.839H237.164L237.164 116.839L237.164 89.9814Z" fill="#2D69F2"/>
    <path d="M8.28525 112.371C5.65927 110.68 5.90901 106.732 8.72834 105.367L149.587 37.1354C150.802 36.5466 152.228 36.6149 153.377 37.317L235.96 87.7856C238.583 89.3884 238.481 93.2614 235.777 94.7458L100.273 169.125C98.9956 169.826 97.4441 169.773 96.2232 168.987L8.28525 112.371Z" fill="url(#paint0_linear_356_2)"/>
    <path d="M7.08528 162.744C6.5002 162.378 6.14605 161.733 6.14917 161.037L6.19313 151.239C6.20012 149.681 7.88837 148.717 9.21277 149.514L98.7114 203.389C99.3086 203.748 100.05 203.766 100.667 203.436L234.304 131.926C235.634 131.214 237.231 132.183 237.224 133.698L237.173 145.154C237.17 145.894 236.763 146.573 236.115 146.923L100.614 220.059C99.9859 220.398 99.2272 220.375 98.6238 219.998L7.08528 162.744Z" fill="#2D69F2"/>
    <path d="M17.1795 140.495L47.5521 159.001L47.5521 193.009L31.6644 165.009L17.1795 174.724L17.1795 140.495Z" fill="#B50000"/>
    <g filter="url(#filter0_d_356_2)">
        <path d="M55.4854 117.64C46.4843 112.442 46.9731 99.1872 56.3356 94.5875L136.925 54.9946C140.827 53.0774 145.413 53.249 149.144 55.4517L188.117 78.4633C196.95 83.6783 196.497 96.7053 187.321 101.373L108.485 141.472C104.591 143.453 99.9806 143.335 96.212 141.158L55.4854 117.64Z" fill="#0086FF"/>
        <path d="M56.4825 115.897C48.8661 111.499 49.2797 100.283 57.2018 96.3911L137.791 56.7982C141.093 55.176 144.973 55.3212 148.13 57.185L187.104 80.1966C194.577 84.6093 194.194 95.6321 186.43 99.5813L107.594 139.681C104.299 141.357 100.398 141.257 97.2091 139.415L56.4825 115.897Z" stroke="white" stroke-width="4"/>
    </g>
    <ellipse cx="94.8784" cy="99.1242" rx="9.14286" ry="6.85715" fill="#3DEBDA"/>
    <ellipse cx="130.307" cy="81.9814" rx="9.14286" ry="6.85715" fill="#3DEBDA"/>
    <path d="M144.08 97.4487C145.171 97.621 145.925 98.6487 145.648 99.7179C145.016 102.155 143.94 104.462 142.468 106.519C140.608 109.121 138.167 111.252 135.339 112.745C132.511 114.238 129.374 115.051 126.177 115.12C123.648 115.174 121.136 114.761 118.767 113.908C117.728 113.534 117.305 112.331 117.778 111.333L117.82 111.245C118.293 110.247 119.483 109.834 120.531 110.183C122.317 110.778 124.197 111.064 126.089 111.023C128.649 110.968 131.161 110.317 133.426 109.121C135.691 107.926 137.646 106.219 139.135 104.136C140.236 102.597 141.061 100.884 141.577 99.0735C141.88 98.0113 142.892 97.2613 143.983 97.4335L144.08 97.4487Z" fill="#3DEBDA"/>
    <defs>
        <filter id="filter0_d_356_2" x="43.015" y="52.6692" width="157.465" height="101.209" filterUnits="userSpaceOnUse" color-interpolation-filters="sRGB">
            <feFlood flood-opacity="0" result="BackgroundImageFix"/>
            <feColorMatrix in="SourceAlpha" type="matrix" values="0 0 0 0 0 0 0 0 0 0 0 0 0 0 0 0 0 0 127 0" result="hardAlpha"/>
            <feOffset dy="5"/>
            <feGaussianBlur stdDeviation="3"/>
            <feComposite in2="hardAlpha" operator="out"/>
            <feColorMatrix type="matrix" values="0 0 0 0 0.239216 0 0 0 0 0.921569 0 0 0 0 0.854902 0 0 0 0.75 0"/>
            <feBlend mode="normal" in2="BackgroundImageFix" result="effect1_dropShadow_356_2"/>
            <feBlend mode="normal" in="SourceGraphic" in2="effect1_dropShadow_356_2" result="shape"/>
        </filter>
        <linearGradient id="paint0_linear_356_2" x1="162.512" y1="36.3327" x2="160.575" y2="172.288" gradientUnits="userSpaceOnUse">
            <stop stop-color="#62CFF4"/>
            <stop offset="0.350144" stop-color="#2C67F2"/>
        </linearGradient>
    </defs>
</svg>
