<svg width="70" height="71" viewBox="0 0 70 71" fill="none" xmlns="http://www.w3.org/2000/svg">
<path d="M22.5233 70.5001C17.8567 54.8334 15.1233 26.9001 41.5233 40.5001C59.8662 49.9494 66.7195 42.2448 68.5233 32.4132V19.5C69.1337 23.3658 69.3156 28.0947 68.5233 32.4132V70.5001H22.5233Z" fill="white" fill-opacity="0.5"/>
<path d="M13.1608 70.5C7.51014 51.7615 4.20045 18.3511 36.1672 34.6177C58.3779 45.9199 66.6763 36.7046 68.8604 24.9452V9.5C69.5995 14.1238 69.8198 19.7799 68.8604 24.9452V70.5H13.1608Z" fill="white" fill-opacity="0.2"/>
<path d="M4.70995 70.5C-1.78834 48.9968 -5.59448 10.6569 31.1673 29.3236C56.7096 42.2933 66.2527 31.7184 68.7645 18.224V0.5C69.6144 5.80597 69.8678 12.2966 68.7645 18.224V70.5H4.70995Z" fill="white" fill-opacity="0.2"/>
</svg>
